<svg width="23" height="23" viewBox="0 0 23 23" fill="none" xmlns="http://www.w3.org/2000/svg">
<path opacity="0.4" d="M1.91663 6.17837C1.91663 3.8295 3.86227 1.91667 6.25264 1.91667H11.007C13.3925 1.91667 15.3333 3.82375 15.3333 6.16879V16.8216C15.3333 19.1715 13.3876 21.0833 10.9963 21.0833H6.24386C3.8574 21.0833 1.91663 19.1763 1.91663 16.8312V15.9304V6.17837Z" fill="#EA5B5B"/>
<path d="M20.8714 10.9775L18.1442 8.18972C17.8623 7.90222 17.4087 7.90222 17.1278 8.19164C16.8478 8.48106 16.8487 8.94777 17.1297 9.23527L18.6239 10.7619H17.1913H9.15056C8.75389 10.7619 8.43188 11.0925 8.43188 11.4998C8.43188 11.9081 8.75389 12.2377 9.15056 12.2377H18.6239L17.1297 13.7643C16.8487 14.0518 16.8478 14.5186 17.1278 14.808C17.2687 14.9527 17.4526 15.0255 17.6374 15.0255C17.8203 15.0255 18.0042 14.9527 18.1442 14.8099L20.8714 12.0231C21.0068 11.8841 21.0833 11.6963 21.0833 11.4998C21.0833 11.3043 21.0068 11.1165 20.8714 10.9775Z" fill="#EA5B5B"/>
</svg>
