<svg width="24" height="24" viewBox="0 0 24 24" fill="none" xmlns="http://www.w3.org/2000/svg">
<g clip-path="url(#clip0_0_3)">
<g filter="url(#filter0_d_0_3)">
<mask id="mask0_0_3" style="mask-type:alpha" maskUnits="userSpaceOnUse" x="0" y="0" width="24" height="24">
<path d="M8.11838 0.0325467C8.16109 0.0111067 8.20759 0 8.25458 0H15.7454C15.7924 0 15.8389 0.0111067 15.8817 0.0325467L21.6093 2.5744C21.6685 2.60413 21.7185 2.652 21.7531 2.7124L23.9469 7.68587C24.0255 7.8228 24.0161 7.9992 23.9234 8.12533L12.2566 23.8651C12.1943 23.9504 12.0999 24 12.0001 24C11.9001 24 11.8058 23.9504 11.7434 23.8651L0.0766074 8.12533C-0.0161466 7.99933 -0.0255441 7.8228 0.0531747 7.68587L2.24705 2.70013C2.28171 2.63987 2.33163 2.592 2.3907 2.56213L8.11838 0.0325467Z" fill="white"/>
</mask>
<g mask="url(#mask0_0_3)">
<path d="M23.9948 5.79256H11.9947V23.9052H23.9948V5.79256Z" fill="#2A92F2"/>
<path d="M12.0001 5.79256H0V23.9052H12.0001V5.79256Z" fill="#4795F1"/>
<path d="M23.9996 0H0V6.89573H23.9996V0Z" fill="#86C5FF"/>
<path d="M11.9962 4.76277L16.5786 10.8617H7.47524L11.9962 4.76277Z" fill="#8BC0FF"/>
<path d="M11.9958 27.4909L16.5786 10.862H7.47524L11.9958 27.4909Z" fill="#ADD3FF"/>
<path d="M11.9983 4.76283L3.08926 3.63176L7.47737 10.8619L11.9983 4.76283Z" fill="#D3E0FF"/>
<path d="M0 7.81509L3.09127 3.63176L7.47927 10.8619L0 7.81509Z" fill="#9FBAFF"/>
<path d="M0 7.81505L3.09127 3.63159L2.33899 2.57439C1.82689 2.64599 0.933398 5.39265 0 7.81505Z" fill="#7498F8"/>
<path d="M12.0042 4.76283L20.7584 3.63176L16.5867 10.8619L12.0042 4.76283Z" fill="#4C99F3"/>
<path d="M23.9979 7.81531L20.7529 3.63184L16.5809 10.862L23.9979 7.81531Z" fill="#96C7FF"/>
<path d="M24.0022 7.81505L20.7572 3.63159L21.6116 2.57439C22.3313 3.08212 23.2913 5.63559 24.0022 7.81505Z" fill="#4481FD"/>
<path d="M5.89827 8.41268C5.8757 8.35175 5.96015 8.28801 6.00238 8.33415C6.40915 8.77761 7.23819 9.60107 7.83377 9.65827C8.41836 9.7144 9.42061 9.09415 9.94486 8.73561C9.99649 8.70028 10.07 8.79095 10.0336 8.84481C9.72005 9.31015 9.2207 10.1541 9.16248 10.8841C9.09999 11.6684 9.51078 12.7736 9.73641 13.3117C9.76118 13.3708 9.6843 13.4345 9.64048 13.3916C9.20238 12.9628 8.25543 12.1041 7.64362 12.0453C7.02681 11.986 6.03507 12.6707 5.58436 13.0111C5.53677 13.0469 5.4699 12.9775 5.49919 12.9224C5.75939 12.4333 6.26953 11.3885 6.33141 10.6123C6.38975 9.88013 6.08634 8.92295 5.89827 8.41268Z" fill="white"/>
</g>
</g>
</g>
<defs>
<filter id="filter0_d_0_3" x="-140" y="-137" width="304" height="304" filterUnits="userSpaceOnUse" color-interpolation-filters="sRGB">
<feFlood flood-opacity="0" result="BackgroundImageFix"/>
<feColorMatrix in="SourceAlpha" type="matrix" values="0 0 0 0 0 0 0 0 0 0 0 0 0 0 0 0 0 0 127 0" result="hardAlpha"/>
<feOffset dy="3"/>
<feGaussianBlur stdDeviation="70"/>
<feColorMatrix type="matrix" values="0 0 0 0 0 0 0 0 0 0 0 0 0 0 0 0 0 0 0.5 0"/>
<feBlend mode="normal" in2="BackgroundImageFix" result="effect1_dropShadow_0_3"/>
<feBlend mode="normal" in="SourceGraphic" in2="effect1_dropShadow_0_3" result="shape"/>
</filter>
<clipPath id="clip0_0_3">
<rect width="24" height="24" fill="white"/>
</clipPath>
</defs>
</svg>
