<svg width="15" height="16" viewBox="0 0 15 16" fill="none" xmlns="http://www.w3.org/2000/svg">
<path fill-rule="evenodd" clip-rule="evenodd" d="M13.7478 5.58342H11.1011C9.86944 5.58573 8.87167 6.62343 8.86944 7.90438C8.86778 9.18821 9.86667 10.2305 11.1011 10.2323H13.75V10.4362C13.75 12.6757 12.4772 14 10.3233 14H4.67722C2.52278 14 1.25 12.6757 1.25 10.4362V5.55857C1.25 3.31908 2.52278 2 4.67722 2H10.3211C12.475 2 13.7478 3.31908 13.7478 5.55857V5.58342ZM4.21222 5.57822H7.73722H7.73944H7.74389C8.00778 5.57706 8.22111 5.35346 8.22 5.07843C8.21889 4.80399 8.00333 4.58212 7.73944 4.58327H4.21222C3.95 4.58443 3.73722 4.80572 3.73611 5.07901C3.735 5.35346 3.94833 5.57706 4.21222 5.57822Z" fill="white"/>
<path opacity="0.4" d="M10.0234 8.19778C10.1541 8.8319 10.6753 9.27805 11.2704 9.26645H13.3016C13.5492 9.26645 13.75 9.04772 13.75 8.77736V7.08966C13.7495 6.81988 13.5492 6.60058 13.3016 6.6H11.2225C10.5457 6.60232 9.99894 7.20163 10 7.94018C10 8.02663 10.008 8.11307 10.0234 8.19778Z" fill="white"/>
<ellipse cx="11.25" cy="7.93333" rx="0.625" ry="0.666667" fill="white"/>
</svg>
